<svg width="31" height="40" viewBox="0 0 31 40" fill="none" xmlns="http://www.w3.org/2000/svg">
<path d="M13.5469 0.801594C13.4846 0.805919 13.4219 0.817932 13.3609 0.837532L0.560938 4.83753C0.226537 4.94153 0 5.25043 0 5.60003V35.2C0 35.5672 0.249449 35.887 0.606249 35.9766L13.4062 39.1766C13.4703 39.1926 13.5352 39.2 13.6 39.2C13.7768 39.2 13.9498 39.1409 14.0922 39.0297C14.2866 38.8785 14.4 38.6464 14.4 38.4V1.60003C14.4 1.34563 14.2798 1.10592 14.075 0.954719C13.9214 0.841919 13.7337 0.788619 13.5469 0.801594ZM16 4.00003V5.60003H22.4V21.6H24V4.80003C24 4.58787 23.9157 4.38439 23.7657 4.23437C23.6156 4.08435 23.4122 4.00005 23.2 4.00003H16ZM11.2 19.2C11.6416 19.2 12 19.7376 12 20.4C12 21.0624 11.6416 21.6 11.2 21.6C10.7584 21.6 10.4 21.0624 10.4 20.4C10.4 19.7376 10.7584 19.2 11.2 19.2ZM16.8 23.2C16.3576 23.2 16 23.5576 16 24V35.2C16 35.6424 16.3576 36 16.8 36H29.6C30.0424 36 30.4 35.6424 30.4 35.2V24C30.4 23.5576 30.0424 23.2 29.6 23.2H16.8ZM21.6 26.4H24.8C25.2424 26.4 25.6 26.7576 25.6 27.2C25.6 27.6424 25.2424 28 24.8 28H21.6C21.1576 28 20.8 27.6424 20.8 27.2C20.8 26.7576 21.1576 26.4 21.6 26.4Z" fill="#525252"/>
</svg>
